<svg width="20" height="20" viewBox="0 0 20 20" fill="none" xmlns="http://www.w3.org/2000/svg">
<path fill-rule="evenodd" clip-rule="evenodd" d="M10 13C7.51498 13 5.26523 14.0071 3.6366 15.6355C2.30716 14.1355 1.5 12.162 1.5 10C1.5 5.30558 5.30557 1.5 10 1.5C14.6944 1.5 18.5 5.30558 18.5 10C18.5 12.162 17.6928 14.1355 16.3634 15.6355C14.7348 14.0071 12.485 13 10 13ZM0 10C0 12.6219 1.009 15.0081 2.65991 16.7915C4.48654 18.7647 7.09903 20 10 20C12.7614 20 15.2614 18.8807 17.0711 17.0711C18.8807 15.2614 20 12.7614 20 10C20 4.47715 15.5229 0 10 0C4.47714 0 0 4.47715 0 10ZM10 11.5C11.933 11.5 13.5 9.933 13.5 8C13.5 6.067 11.933 4.5 10 4.5C8.06702 4.5 6.5 6.067 6.5 8C6.5 9.933 8.06702 11.5 10 11.5Z" fill="white" fill-opacity="0.6"/>
</svg>
