<svg width="48" height="48" viewBox="0 0 48 48" fill="none" xmlns="http://www.w3.org/2000/svg">
<g clip-path="url(#clip0_241_8314)">
<path fill-rule="evenodd" clip-rule="evenodd" d="M42.0076 25.8864C42.0076 32.3426 40.5151 37.1544 37.5316 40.2898C34.5473 43.4245 29.9371 44.9918 23.7218 44.9918C17.9146 44.9918 13.5091 43.4245 10.5053 40.2898C7.50008 37.1551 5.99933 32.4272 5.99933 26.1066V4.90081C5.99992 4.66208 6.09612 4.4333 6.26688 4.26449C6.43765 4.09568 6.66908 4.00059 6.91058 4H17.4406C17.682 4.00098 17.9132 4.0962 18.0838 4.26492C18.2545 4.43364 18.3508 4.6622 18.3518 4.90081V26.57C18.3518 29.1509 18.8348 31.1371 19.8181 32.5384C20.554 33.503 21.6034 34.1878 22.7898 34.4777C23.9763 34.7675 25.2276 34.6448 26.3333 34.1302C27.0664 33.7893 27.711 33.2874 28.2181 32.6629C29.1796 31.3484 29.6581 29.4111 29.6551 26.8503V22.7925H42.0076V25.8864Z" fill="#2B5089"/>
<path fill-rule="evenodd" clip-rule="evenodd" d="M29.6565 19.375V4.93202C29.6571 4.68501 29.7579 4.44828 29.9368 4.27362C30.1157 4.09896 30.3582 4.00058 30.6112 4H32.3175C32.3195 6.50645 33.3411 8.90953 35.1577 10.6808C36.9747 12.4526 39.4378 13.448 42.006 13.4483H42.009V19.375H29.6565Z" fill="#2B5089"/>
<path fill-rule="evenodd" clip-rule="evenodd" d="M34.7445 4H41.0543C41.3072 4.00077 41.5496 4.09921 41.7285 4.27383C41.9074 4.44845 42.0082 4.68507 42.009 4.93202V11.0967C40.0829 11.0963 38.2357 10.3493 36.8735 9.01995C35.5113 7.69058 34.7455 5.88761 34.7445 4.00732V4Z" fill="#F4821F"/>
</g>
<defs>
<clipPath id="clip0_241_8314">
<rect width="36" height="41" fill="white" transform="translate(6 4)"/>
</clipPath>
</defs>
</svg>
