<svg xmlns="http://www.w3.org/2000/svg"  viewBox="0 0 512 512" width="48px" height="48px"><path fill="#BCBCBC" d="M318.9 38.4c-20.3-14.6-45.1-21-70-20.8-23.3.2-49.2 2.5-68.8 16.3-9.2 6.5-17.2 14.9-22.1 25.1-5.7 11.8-3.5 25.1-4.6 37.8 7.2.3 14.4.5 21.6.6.1 0 .1 0 .2 0-.1-.1-.2-.3-.3-.4-9.5-15.6 7.1-34.7 17.5-45.3 6.8-6.9 13.7-12.5 23-15.8 11.4-3.9 23.5-5 35.4-4.1 36.3 2.9 80.6 22.3 84 62.6 4.4 0 8.8 0 13.1 0C346.9 72.6 336.9 51.3 318.9 38.4zM321.1 275.7c-.5-4.6-1.1-9.2-1.5-13.8-.4-3.9-.2-7.8-1.1-11.7-1.7-7.3-5.1-16.3-14-15.8-2.9.2-4.7-1.5-5.4-3.6-3 1-7.2-.4-8-4.5-2.5-11.9-4-25.3-10.1-36.1-6.2-11-16.5-16-29-15.9-14.7.2-25.2 8.2-30.4 22-2.1 5.6-3.4 12.7-1.5 18.5 1.1 3.1 2.7 5.8 5.5 7.6 2.3 1.5 3 3.3 3 6 0 3.2-1.9 5.4-5.1 5.9-7.3 1.3-15.2 7-14.4 15.1.2 2-.6 3.5-1.8 4.5 2.2 13.4 4.6 26.9 8 40.1 2.2 8.4 4.4 19 14.1 21.6 9.1 2.4 18.8.7 27.9-.5 11.4-1.5 22.6-.2 34.1-.1 10 .1 22.9-.2 27.6-10.8C322.9 295.5 322 285.1 321.1 275.7zM240.2 225.3c-2.5-.1-4.7-1.7-4.7-4.9.1-10.8 2-31.6 16.8-31.7 17.8-.1 23.9 22.8 24.1 36.8 0 2.8-1.9 5.9-5.1 5.9h-25.5C242.1 231.5 240.1 228.3 240.2 225.3zM277.4 293c-9.1.2-17.9 2.8-27 3-4.5.1-6.8-3.9-5.3-7.9 1.3-3.5 3.3-6.7 5.6-9.6.7-.9 1.6-1.8 2.4-2.9-6.5-4.6-9.4-13.7-7.8-21.5 2-9.5 9.8-13.2 18.9-10.7 5.5 1.5 8.5 6.8 8.4 12.3-.1 4.4.3 10.7-1.5 14.7-.1.3-.3.6-.5 1 .7 1 1.8 2.1 2.6 3 3.5 3.5 9.3 7.3 9.3 12.7C282.5 289.9 280.6 292.9 277.4 293z"/><path fill="#127274" d="M252.5,199.7c-5.5-0.5-6,16.5-6.1,19.9c0,0.3,0,0.6-0.1,0.9h18.7C264.2,211.8,261.1,200.5,252.5,199.7z"/><path fill="#127274" d="M430.4,312.5c-7.1,0-7.9-10.9-0.8-11c11.5-0.1,23-1.3,34.5-1.5c-0.3-10.3-0.9-20.6-1.7-30.9l0,0c-5.2-4.8-15.4-3.2-21.8-2.6c-8.4,0.8-16.8,2.4-25.2,2.5c-7.1,0.1-7.9-10.9-0.8-11c9.8-0.1,19.4-2.2,29.2-2.8c5.6-0.3,11.8-0.5,17.4,1.1c-1.2-11.4-2.6-22.7-4.1-34c-1.9-0.7-3.5-2.5-3.9-4.7c-16.6-0.3-33.2,3.2-49.8,3.3c-7.1,0.1-7.9-10.9-0.8-11c17.5-0.1,34.9-3.5,52.4-3.2c-2-13.8-4-27.6-5.9-41.4c-0.2,0-0.4,0-0.7,0h-58.5c-7.1,0-7.9-11-0.8-11h58.5c0,0,0.1,0,0.1,0c-0.9-6.9-1.7-13.8-2.4-20.7c-3.1,0-6.4-2.4-5.6-6.4c4.5-24.7-39.4-22-54.2-22c-17.6,0-35.1,0-52.7,0c-2.2,1.7-5.5,1.7-7.3,0c-30.6,0.1-61.2,0.4-91.8,1.1c-23.2,0.5-46.6,2.5-69.8,1.4c-15.5-0.7-31-1.5-46.5-1.1c-19.1,0.5-62.1,1.4-64.3,26.7c0.9,0.8,1.5,2,1.6,3.5c0.9,13.3,1.6,26.7,2.2,40c0.3,0,0.6-0.1,0.9-0.1c9.5-0.1,18.9-2.3,28.2-3.7c7.3-1.1,15.5-2.8,22.7-0.3c6.7,2.3,1.7,12.2-4.9,9.9c-1.5-0.5-6,0-8.4,0.2c-4.2,0.5-8.3,1.1-12.5,1.8c-8,1.3-16.1,3-24.3,3.1c-0.4,0-0.9,0-1.3-0.1c0.4,10.4,0.9,20.8,1.3,31.2c0.2,0,0.4,0,0.6,0c11.3,1.3,24.1-0.2,35.8,0.2c8.6,0.3,24.3-0.4,28.3,9.4c2.6,6.4-7.1,9.9-10.1,4.2c0,0-0.1-0.1-0.1-0.1c-0.5-0.2-1.4-0.6-1.6-0.7c-2.2-0.6-4.4-1-6.6-1.2c-5.6-0.6-11.2-0.7-16.9-0.7c-9.6,0-19.4,0.8-28.9-0.1c0.6,14.1,1.1,28.2,1.8,42.3c0.8-0.5,1.7-0.8,2.9-0.9c8.8-0.1,17.5-1.3,26.3-1.6c7.5-0.2,16.4-0.5,23,3.6c6,3.7,1.2,13.6-4.9,9.9c-5.7-3.5-13.7-2.7-20.1-2.4c-7.8,0.4-15.7,1.4-23.5,1.4c-1.3,0-2.4-0.4-3.3-1c0.8,14.9,1.6,29.8,2.7,44.8c0.7-0.5,1.6-0.7,2.8-0.7c18-0.1,36-2.9,54-3c7.1,0,7.9,10.9,0.8,11c-18,0.1-36,2.9-54,3c-1.1,0-2-0.2-2.8-0.7c0.4,4.4,0.8,8.8,1.3,13.2c1.7,16.1,5.5,33.9,19.2,44.3c20.5,15.6,48.6,16.2,73.2,15.4c31-1.1,61.9-4.6,92.9-5.3c32.4-0.8,63.6,4.2,95.4,9.7c22.1,3.8,45,6,66.5-1.9c16.5-6,30.2-17.6,38.4-33.2c10.8-20.6,12.7-44,12.7-66.9C452.9,311.2,441.7,312.4,430.4,312.5z M138.4,183.6c-1-0.9-1.9-2.3-1.9-3.7v-1.5c0-1.5,0.3-2.9,1.4-4.1c0.9-1.1,2.3-1.7,3.7-1.9c1.5-0.1,2.9,0.4,4.1,1.4c1,0.9,1.9,2.3,1.9,3.7v1.5c0,1.5-0.3,2.9-1.4,4.1c-0.9,1.1-2.3,1.7-3.7,1.9C140.9,185.1,139.5,184.6,138.4,183.6z M145.5,232.4v-1.5c0-1.5,0.3-2.9,1.4-4.1c0.9-1.1,2.3-1.7,3.7-1.9c1.5-0.1,3,0.4,4.1,1.4c1,0.9,1.9,2.3,1.9,3.7v1.5c0,1.5-0.3,2.9-1.4,4.1c-0.9,1.1-2.3,1.7-3.7,1.9c-1.5,0.1-3-0.4-4.1-1.4C146.3,235.2,145.5,233.8,145.5,232.4z M152.1,280.5c7.1,0,7.9,11,0.8,11C145.8,291.5,145,280.5,152.1,280.5z M159.6,330.1c-0.9,1-2.3,1.9-3.7,1.9h-1.5c-1.5,0-2.9-0.3-4.1-1.4c-1.1-0.9-1.7-2.3-1.9-3.7c-0.1-1.5,0.4-3,1.4-4.1c0.9-1,2.3-1.9,3.7-1.9h1.5c1.5,0,2.9,0.3,4.1,1.4c1.1,0.9,1.7,2.3,1.9,3.7C161.1,327.5,160.6,329,159.6,330.1z M331.5,301.3c-2.4,10-8.2,18.7-18.3,22.1c-11.6,3.9-23.9,2.6-35.9,2.1c-11.1-0.5-21.5,1.5-32.5,2.2c-9,0.6-18.5,0.1-26.2-5.2c-9.4-6.5-12.1-17.8-14.6-28.3c-3.7-15.4-6.3-31.1-9-46.7c-0.5-3.2,1.5-5.1,3.9-5.6c2.2-7,8-12.4,14.8-15.6c-8.1-10.6-6.3-26.9-0.3-38.5c7.7-14.8,20.5-24.5,37.7-24.3c15.6,0.2,30.5,5.5,38.5,19.8c7,12.5,9.3,26.8,12.1,40.7c0.6-0.2,1.2-0.4,1.9-0.4c12.6-0.7,21.2,8.4,24.4,19.9c2.5,8.6,2.6,17.7,3.6,26.5C332.7,280.2,333.9,291.1,331.5,301.3z M350,164.1c0,1.5-0.3,2.9-1.4,4.1c-0.9,1.1-2.3,1.7-3.7,1.9c-1.5,0.1-3-0.4-4.1-1.4c-1-0.9-1.9-2.3-1.9-3.7v-1.5c0-1.5,0.3-2.9,1.4-4.1c0.9-1.1,2.3-1.7,3.7-1.9c1.5-0.1,3,0.4,4.1,1.4c1,0.9,1.9,2.3,1.9,3.7V164.1z M371,230.1c0,1.5-0.3,2.9-1.4,4.1c-0.9,1.1-2.3,1.7-3.7,1.9c-1.5,0.1-2.9-0.4-4.1-1.4c-1-0.9-1.9-2.3-1.9-3.7v-3c0-1.5,0.3-2.9,1.4-4.1c0.9-1.1,2.3-1.7,3.7-1.9c1.5-0.1,2.9,0.4,4.1,1.4c1,0.9,1.9,2.3,1.9,3.7V230.1z M377.9,293c-2.8,0.2-5.9-2.1-5.9-5.1v-4.5c0-3,1.9-5.7,5.1-5.9c2.8-0.2,5.9,2.1,5.9,5.1v4.5C383,290.1,381.1,292.7,377.9,293z M393.3,342c-0.2,0.9-0.7,2.3-1.4,3c-1.1,0.9-1.1,1.1-2.4,1.6c-0.5,0.2-1.1,0.3-1.6,0.4c-0.3,0-0.6,0-0.9,0c-1.5,0-2.9-0.3-4.1-1.4c-1.1-0.9-1.7-2.3-1.9-3.7c-0.1-1.5,0.4-2.9,1.4-4.1c0.3-0.3,0.7-0.7,1.1-0.9c0.1-0.2,0.3-0.4,0.4-0.6c0.9-1.1,2.3-1.7,3.7-1.9c1.5-0.1,3,0.4,4.1,1.4c1,0.9,1.9,2.3,1.9,3.7C393.5,340.4,393.5,341.2,393.3,342z"/><path d="M474.3,280.9c-3.2-53.8-14.6-106.7-19.3-160.3c-0.3-3.1-2.6-4.8-5.2-4.9c-8.4-25.6-60.2-21.1-81.2-21.1c-3.2,0-6.5,0-9.7,0c-0.8-22.9-10.8-46.7-28.7-61.2C309.1,16.1,283,8.2,256.1,6.8c-25.3-1.3-53.4,1.7-75.8,14.1c-10.6,5.9-20,14.4-26.8,24.4C145.3,57.2,143,69.6,143,83.8c0,4.1,0,8.1-0.4,12.2c0,0.2,0,0.4,0,0.5c-15.8-0.6-31.6-0.9-47.4,0.8c-23.7,2.6-56.4,12-53.2,42.1c0.2,1.6,0.9,2.8,1.8,3.6c4,63.9,4.4,128.1,9.8,192c2,23.2,3.7,48,21.9,64.8c18.7,17.3,47,19.9,71.2,20.1c29.9,0.2,59.8-3.2,89.6-4.9c16.4-0.9,32.8-1.3,49.2,0.1c15.9,1.3,31.7,4,47.5,6.8c24.5,4.3,48.2,8.2,72.9,2.8c17.7-3.9,33.9-13.3,45.6-27.2C478.2,365.9,476.6,319.5,474.3,280.9z M158.1,59.1C163,48.9,171,40.4,180.2,34c19.6-13.8,45.4-16.1,68.8-16.3c24.9-0.2,49.6,6.1,70,20.8c18,12.9,28,34.2,29,56.1c-4.4,0-8.8,0-13.1,0c-3.3-40.3-47.7-59.6-84-62.6c-12-1-24,0.1-35.4,4.1c-9.3,3.2-16.3,8.9-23,15.8c-10.4,10.6-27,29.6-17.5,45.3c0.1,0.2,0.2,0.3,0.3,0.4c-0.1,0-0.1,0-0.2,0c-7.2-0.1-14.4-0.3-21.6-0.6C154.5,84.2,152.4,70.9,158.1,59.1z M184,90.9c-3.1-5.1,1.4-12.2,4.1-16.5c4-6.5,9.4-12.3,14.8-17.6c13.7-13.5,33.7-15.7,52-13.4c29.7,3.8,64.9,18.8,68.8,51.2c-17.9,0.1-35.8,0.2-53.7,0.4c-16.3,0.2-32.6,0.5-48.9,0.9c-12.5,0.3-25,1.2-37.5,1.5C184.9,95.8,185.5,93.3,184,90.9z M451.5,377.9c-8.2,15.6-21.9,27.2-38.4,33.2c-21.5,7.9-44.4,5.7-66.5,1.9c-31.8-5.5-63.1-10.5-95.4-9.7c-31,0.7-61.9,4.2-92.9,5.3c-24.7,0.9-52.7,0.3-73.2-15.4c-13.6-10.4-17.4-28.2-19.2-44.3c-0.5-4.4-0.9-8.8-1.3-13.2c0.8,0.4,1.7,0.7,2.8,0.7c18-0.1,36-2.9,54-3c7.1,0,6.2-11-0.8-11c-18,0.1-36,2.9-54,3c-1.1,0-2,0.3-2.8,0.7c-1.1-14.9-1.9-29.9-2.7-44.8c0.9,0.6,2,1,3.3,1c7.9-0.1,15.7-1,23.5-1.4c6.4-0.3,14.4-1.1,20.1,2.4c6.1,3.7,10.9-6.2,4.9-9.9c-6.7-4.1-15.5-3.8-23-3.6c-8.8,0.2-17.5,1.5-26.3,1.6c-1.2,0-2.2,0.3-2.9,0.9c-0.7-14.1-1.3-28.2-1.8-42.3c9.6,0.8,19.4,0.1,28.9,0.1c5.6,0,11.3,0.1,16.9,0.7c2.2,0.3,4.5,0.6,6.6,1.2c0.2,0.1,1.2,0.5,1.6,0.7c0.1,0,0.1,0.1,0.1,0.1c3,5.7,12.7,2.2,10.1-4.2c-4-9.8-19.7-9.1-28.3-9.4c-11.8-0.4-24.5,1.1-35.8-0.2c-0.2,0-0.4,0-0.6,0c-0.4-10.4-0.8-20.8-1.3-31.2c0.4,0.1,0.8,0.1,1.3,0.1c8.2-0.1,16.3-1.7,24.3-3.1c4.1-0.7,8.3-1.3,12.5-1.8c2.4-0.3,6.9-0.7,8.4-0.2c6.6,2.3,11.6-7.5,4.9-9.9c-7.2-2.5-15.3-0.9-22.7,0.3c-9.3,1.4-18.7,3.6-28.2,3.7c-0.3,0-0.6,0-0.9,0.1c-0.6-13.3-1.3-26.7-2.2-40c-0.1-1.5-0.7-2.7-1.6-3.5c2.2-25.2,45.2-26.2,64.3-26.7c15.5-0.4,31,0.4,46.5,1.1c23.2,1.1,46.6-0.9,69.8-1.4c30.6-0.7,61.2-1,91.8-1.1c1.8,1.7,5.1,1.6,7.3,0c17.6,0,35.1,0,52.7,0c14.8,0,58.7-2.7,54.2,22c-0.7,4,2.5,6.4,5.6,6.4c0.7,6.9,1.6,13.8,2.4,20.7c0,0-0.1,0-0.1,0H389c-7.1,0-6.2,11,0.8,11h58.5c0.2,0,0.5,0,0.7,0c1.9,13.8,3.9,27.6,5.9,41.4c-17.5-0.3-34.8,3-52.4,3.2c-7.1,0.1-6.2,11,0.8,11c16.6-0.1,33.2-3.6,49.8-3.3c0.4,2.1,2,3.9,3.9,4.7c1.5,11.3,2.9,22.7,4.1,34c-5.6-1.6-11.9-1.4-17.4-1.1c-9.7,0.5-19.4,2.6-29.2,2.8c-7.1,0.1-6.2,11.1,0.8,11c8.4-0.1,16.8-1.7,25.2-2.5c6.3-0.6,16.6-2.2,21.8,2.6l0,0c0.9,10.3,1.5,20.6,1.7,30.9c-11.5,0.2-23,1.4-34.5,1.5c-7.1,0-6.2,11,0.8,11c11.3-0.1,22.5-1.2,33.8-1.5C464.2,333.9,462.3,357.3,451.5,377.9z"/><path d="M331.5,270c-1-8.9-1.1-17.9-3.6-26.5c-3.3-11.5-11.8-20.7-24.4-19.9c-0.7,0-1.4,0.2-1.9,0.4c-2.8-13.9-5.1-28.2-12.1-40.7c-8-14.2-22.9-19.6-38.5-19.8c-17.2-0.2-30,9.5-37.7,24.3c-6,11.6-7.8,27.9,0.3,38.5c-6.8,3.2-12.6,8.6-14.8,15.6c-2.4,0.5-4.4,2.4-3.9,5.6c2.6,15.6,5.3,31.3,9,46.7c2.5,10.5,5.1,21.8,14.6,28.3c7.7,5.3,17.1,5.8,26.2,5.2c11-0.7,21.4-2.7,32.5-2.2c12,0.5,24.3,1.8,35.9-2.1c10.1-3.4,15.9-12.1,18.3-22.1C333.9,291.1,332.7,280.2,331.5,270z M319,304.3c-4.7,10.6-17.6,10.9-27.6,10.8c-11.5-0.1-22.7-1.5-34.1,0.1c-9.2,1.2-18.8,3-27.9,0.5c-9.7-2.6-12-13.2-14.1-21.6c-3.4-13.2-5.8-26.6-8-40.1c1.2-1,1.9-2.5,1.8-4.5c-0.8-8.1,7.1-13.8,14.4-15.1c3.1-0.5,5.1-2.7,5.1-5.9c0-2.6-0.7-4.4-3-6c-2.8-1.9-4.4-4.5-5.5-7.6c-2-5.8-0.7-12.9,1.5-18.5c5.2-13.8,15.7-21.8,30.4-22c12.6-0.2,22.9,4.9,29,15.9c6,10.8,7.6,24.2,10.1,36.1c0.8,4,5,5.4,8,4.5c0.7,2.1,2.6,3.8,5.4,3.6c9-0.5,12.3,8.4,14,15.8c0.9,3.8,0.8,7.8,1.1,11.7c0.4,4.6,1.1,9.2,1.5,13.8C322,285.1,322.9,295.5,319,304.3z"/><path d="M252.3 188.7c-14.8.1-16.8 20.8-16.8 31.7 0 3.2 2.2 4.8 4.7 4.9-.1 3 1.9 6.2 5.7 6.2h25.5c3.1 0 5.1-3.1 5.1-5.9C276.3 211.5 270.1 188.6 252.3 188.7zM246.4 220.5c0-.3.1-.6.1-.9 0-3.3.6-20.4 6.1-19.9 8.6.8 11.6 12.1 12.6 20.8H246.4zM273.1 274.4c-.9-.9-2-2-2.6-3 .2-.3.4-.6.5-1 1.8-4.1 1.4-10.3 1.5-14.7.1-5.5-2.9-10.8-8.4-12.3-9-2.5-16.9 1.2-18.9 10.7-1.6 7.8 1.3 16.9 7.8 21.5-.8 1-1.7 2-2.4 2.9-2.3 2.9-4.3 6.1-5.6 9.6-1.5 4 .9 8 5.3 7.9 9.1-.2 17.9-2.8 27-3 3.2-.1 5.1-3 5.1-5.9C282.5 281.7 276.7 277.9 273.1 274.4zM145.6 173.9c-1.1-1-2.6-1.5-4.1-1.4-1.4.1-2.8.8-3.7 1.9-1 1.2-1.4 2.5-1.4 4.1v1.5c0 1.4.9 2.8 1.9 3.7 1.1 1 2.6 1.5 4.1 1.4 1.4-.1 2.8-.8 3.7-1.9 1-1.2 1.4-2.5 1.4-4.1v-1.5C147.5 176.2 146.6 174.7 145.6 173.9zM154.6 226.4c-1.1-1-2.6-1.5-4.1-1.4-1.4.1-2.8.8-3.7 1.9-1 1.2-1.4 2.5-1.4 4.1v1.5c0 1.4.9 2.8 1.9 3.7 1.1 1 2.6 1.5 4.1 1.4 1.4-.1 2.8-.8 3.7-1.9 1-1.2 1.4-2.5 1.4-4.1v-1.5C156.5 228.7 155.6 227.2 154.6 226.4zM152.1 280.5c-7.1 0-6.2 11 .8 11C160 291.5 159.1 280.5 152.1 280.5zM159.1 322.4c-1.2-1-2.5-1.4-4.1-1.4h-1.5c-1.4 0-2.8.9-3.7 1.9-1 1.1-1.5 2.6-1.4 4.1.1 1.4.8 2.8 1.9 3.7 1.2 1 2.5 1.4 4.1 1.4h1.5c1.4 0 2.8-.9 3.7-1.9 1-1.1 1.5-2.6 1.4-4.1C160.9 324.6 160.2 323.3 159.1 322.4zM348.1 158.9c-1.1-1-2.6-1.5-4.1-1.4-1.4.1-2.8.8-3.7 1.9-1 1.2-1.4 2.5-1.4 4.1v1.5c0 1.4.9 2.8 1.9 3.7 1.1 1 2.6 1.5 4.1 1.4 1.4-.1 2.8-.8 3.7-1.9 1-1.2 1.4-2.5 1.4-4.1v-1.5C350 161.2 349.1 159.7 348.1 158.9zM369.1 223.4c-1.1-1-2.6-1.5-4.1-1.4-1.4.1-2.8.8-3.7 1.9-1 1.2-1.4 2.5-1.4 4.1v3c0 1.4.9 2.8 1.9 3.7 1.1 1 2.6 1.5 4.1 1.4 1.4-.1 2.8-.8 3.7-1.9 1-1.2 1.4-2.5 1.4-4.1v-3C371 225.7 370.1 224.2 369.1 223.4zM377 277.5c-3.2.2-5.1 2.9-5.1 5.9v4.5c0 3 3.1 5.3 5.9 5.1 3.2-.2 5.1-2.9 5.1-5.9v-4.5C383 279.6 379.9 277.3 377 277.5zM393.5 339.6c0-1.4-.9-2.8-1.9-3.7-1.1-1-2.6-1.5-4.1-1.4-1.4.1-2.8.8-3.7 1.9-.2.2-.3.4-.4.6-.4.3-.8.6-1.1.9-1 1.1-1.5 2.6-1.4 4.1.1 1.4.8 2.8 1.9 3.7 1.2 1 2.5 1.4 4.1 1.4.3 0 .6 0 .9 0 .5-.1 1.1-.1 1.6-.4 1.3-.5 1.4-.7 2.4-1.6.7-.6 1.3-2 1.4-3C393.5 341.2 393.5 340.4 393.5 339.6z"/></svg>