<svg width="21" height="24" viewBox="0 0 21 24" fill="none" xmlns="http://www.w3.org/2000/svg">
<g clip-path="url(#clip0_250_3695)">
<path fill-rule="evenodd" clip-rule="evenodd" d="M21.0043 12.8116C21.0043 16.5908 20.1337 19.4074 18.3933 21.2428C16.6525 23.0778 13.9632 23.9952 10.3376 23.9952C6.95007 23.9952 4.3802 23.0778 2.62801 21.2428C0.874949 19.4079 -0.000488281 16.6403 -0.000488281 12.9405V0.527306C-0.00014173 0.387561 0.0559733 0.253639 0.155586 0.154824C0.255198 0.0560094 0.390202 0.000343776 0.531074 0L6.67358 0C6.81438 0.000571272 6.94925 0.05631 7.04881 0.155075C7.14837 0.253841 7.20456 0.387631 7.20514 0.527306V13.2117C7.20514 14.7225 7.48689 15.8851 8.06045 16.7054C8.48973 17.27 9.10186 17.6709 9.79398 17.8406C10.4861 18.0103 11.216 17.9384 11.861 17.6372C12.2886 17.4376 12.6646 17.1439 12.9605 16.7783C13.5213 16.0088 13.8005 14.8748 13.7987 13.3758V11.0005H21.0043V12.8116Z" fill="white"/>
<path fill-rule="evenodd" clip-rule="evenodd" d="M13.7998 9V0.545571C13.8002 0.400981 13.8589 0.26241 13.9633 0.160169C14.0677 0.0579282 14.2091 0.000339548 14.3567 0L15.3521 0C15.3532 1.46719 15.9492 2.87387 17.0089 3.91071C18.0688 4.94789 19.5056 5.53055 21.0037 5.53071H21.0054V9H13.7998Z" fill="white"/>
<path fill-rule="evenodd" clip-rule="evenodd" d="M16.7676 0H20.4483C20.5958 0.000452092 20.7372 0.0580769 20.8416 0.160294C20.9459 0.26251 21.0047 0.401016 21.0052 0.545571V4.15414C19.8816 4.15392 18.8041 3.71667 18.0095 2.9385C17.2148 2.16034 16.7682 1.10494 16.7676 0.00428571V0Z" fill="#F4821F"/>
</g>
<defs>
<clipPath id="clip0_250_3695">
<rect width="21" height="24" fill="white"/>
</clipPath>
</defs>
</svg>
