<svg fill="none" xmlns="http://www.w3.org/2000/svg" width="60" height="16" viewBox="0 0 80 16">
    <path fill-rule="evenodd" clip-rule="evenodd" d="M25.418.825c-3.884 0-7.01 3.197-7.01 7.168 0 3.97 3.126 7.167 7.01 7.167 3.883 0 7.01-3.197 7.01-7.167 0-3.97-3.127-7.168-7.01-7.168zm42.11-.052H46.8c-3.883 0-7.01 3.197-7.01 7.168 0 3.97 3.127 7.168 7.01 7.168h20.728c3.883 0 7.01-3.197 7.01-7.168-.05-3.97-3.177-7.168-7.01-7.168zM7.01.825C3.127.825 0 4.022 0 7.993c0 3.97 3.127 7.167 7.01 7.167s7.01-3.197 7.01-7.167c0-3.97-3.177-7.168-7.01-7.168z" fill="#fff"></path>
</svg>
